<?xml version="1.0" encoding="utf-8"?>
<!-- Generator: Adobe Illustrator 26.3.1, SVG Export Plug-In . SVG Version: 6.00 Build 0)  -->
<svg version="1.1" id="Layer1" xmlns="http://www.w3.org/2000/svg" xmlns:xlink="http://www.w3.org/1999/xlink" x="0px" y="0px"
	 viewBox="0 0 1 1" style="enable-background:new 0 0 1 1;" xml:space="preserve">
<path id="Drips" d="M1.004,0.625c-0.005-0.001-0.006,0-0.009,0.004c-0.017,0.007,0.004,0.077-0.01,0.095c-0.001,0-0.001,0-0.002,0
	C0.98,0.695,0.984,0.666,0.983,0.637c0.002-0.015-0.016-0.01-0.025-0.01C0.956,0.678,0.956,0.73,0.953,0.781
	c0,0.003-0.002,0.006-0.006,0.007C0.947,0.722,0.957,0.655,0.949,0.589c-0.013,0.008,0.009,0.037-0.01,0.034
	C0.93,0.616,0.949,0.59,0.927,0.593C0.925,0.632,0.932,0.671,0.924,0.709C0.914,0.673,0.926,0.634,0.92,0.597
	c-0.011,0.01,0.01,0.032-0.006,0.035c-0.014-0.005,0.005-0.03-0.009-0.038C0.894,0.603,0.901,0.618,0.898,0.63
	C0.897,0.635,0.893,0.64,0.895,0.645c-0.013,0.045,0,0.096-0.011,0.142C0.88,0.725,0.896,0.658,0.87,0.6
	c-0.02,0.007-0.005,0.041-0.011,0.057C0.857,0.656,0.857,0.655,0.856,0.654C0.855,0.729,0.854,0.803,0.853,0.877
	c-0.001,0-0.001,0-0.002,0c0-0.011,0-0.022,0-0.033C0.846,0.843,0.845,0.84,0.845,0.836C0.844,0.775,0.851,0.713,0.842,0.653
	C0.841,0.764,0.84,0.876,0.839,0.988c-0.001,0-0.001,0-0.002,0.001C0.833,0.873,0.84,0.756,0.839,0.641
	C0.834,0.629,0.824,0.638,0.824,0.648C0.821,0.757,0.826,0.868,0.82,0.977c-0.001,0-0.002,0-0.003,0
	C0.81,0.866,0.827,0.746,0.808,0.639c-0.017,0.057,0,0.123-0.007,0.183c-0.005-0.002-0.005-0.006-0.005-0.01
	c0-0.035,0.001-0.071-0.001-0.106C0.795,0.755,0.794,0.804,0.793,0.854c-0.001,0-0.001,0-0.002,0
	C0.786,0.819,0.81,0.568,0.775,0.581C0.767,0.65,0.772,0.724,0.772,0.794C0.767,0.79,0.766,0.786,0.766,0.782
	c-0.001-0.04-0.001-0.08-0.002-0.121C0.75,0.654,0.77,0.61,0.755,0.597c-0.016,0.047-0.002,0.1-0.01,0.15
	c-0.007-0.042-0.002-0.088-0.006-0.13C0.72,0.703,0.734,0.796,0.732,0.884C0.721,0.875,0.728,0.858,0.726,0.846
	c0.002-0.07,0.001-0.14-0.005-0.209C0.72,0.715,0.718,0.794,0.717,0.872c-0.001,0-0.001,0-0.002,0C0.71,0.782,0.729,0.687,0.707,0.6
	C0.702,0.611,0.706,0.626,0.693,0.635c-0.008-0.021,0.002-0.04-0.018-0.056C0.674,0.592,0.677,0.606,0.671,0.62
	C0.669,0.618,0.667,0.615,0.665,0.612C0.66,0.639,0.675,0.723,0.66,0.735C0.656,0.733,0.653,0.728,0.654,0.723
	C0.653,0.675,0.66,0.625,0.656,0.578C0.637,0.594,0.663,0.71,0.64,0.716c-0.007-0.037,0-0.08-0.003-0.119
	C0.6,0.49,0.627,0.801,0.61,0.807C0.597,0.731,0.613,0.649,0.602,0.572c-0.001,0-0.002,0-0.002,0
	C0.595,0.607,0.608,0.648,0.598,0.68C0.587,0.65,0.6,0.611,0.595,0.578C0.57,0.618,0.588,0.674,0.581,0.72c-0.001,0-0.002,0-0.002,0
	C0.576,0.679,0.581,0.635,0.577,0.594c0,0.084,0,0.169,0,0.253c-0.001,0-0.002,0-0.003,0c-0.003-0.066,0-0.132-0.001-0.199
	c-0.016,0-0.004-0.04-0.007-0.053C0.561,0.598,0.549,0.593,0.549,0.602c0,0.029,0.009,0.063,0.001,0.09
	C0.54,0.664,0.547,0.628,0.544,0.597c-0.001,0-0.002,0-0.002,0C0.538,0.721,0.545,0.845,0.54,0.968c-0.001,0-0.001,0-0.002,0
	C0.53,0.844,0.545,0.714,0.532,0.592C0.531,0.641,0.531,0.689,0.527,0.737c-0.003,0.021,0.011,0.05-0.005,0.067
	C0.515,0.798,0.517,0.787,0.517,0.778c0.007-0.06,0.003-0.12,0.005-0.179c0.001-0.008-0.005-0.008-0.009-0.014
	C0.51,0.605,0.514,0.626,0.511,0.646c-0.001,0-0.002,0-0.003,0c0-0.021,0-0.042,0-0.063c-0.001,0-0.002,0-0.002-0.001
	C0.493,0.604,0.503,0.632,0.501,0.656C0.5,0.683,0.498,0.709,0.495,0.736C0.489,0.692,0.498,0.647,0.491,0.603
	c0,0.132-0.005,0.265,0.001,0.397C0.48,0.993,0.485,0.985,0.485,0.975c0-0.114,0-0.229-0.004-0.343
	C0.479,0.622,0.486,0.605,0.476,0.6c-0.02,0.01-0.011,0.078-0.01,0.099C0.469,0.705,0.46,0.711,0.458,0.703
	C0.459,0.67,0.462,0.636,0.454,0.604C0.447,0.728,0.451,0.858,0.448,0.981C0.443,0.983,0.442,0.978,0.442,0.975
	c0.006-0.066,0.002-0.133,0.003-0.199C0.445,0.72,0.443,0.663,0.443,0.608c-0.001-0.007-0.002-0.011-0.01-0.016
	C0.426,0.614,0.445,0.661,0.427,0.674C0.425,0.708,0.43,0.745,0.426,0.777C0.414,0.777,0.425,0.75,0.422,0.741
	c-0.002-0.05,0.003-0.1-0.003-0.15C0.39,0.521,0.404,0.615,0.397,0.635C0.395,0.733,0.4,0.838,0.396,0.933
	C0.391,0.816,0.398,0.689,0.392,0.568c-0.001,0-0.002,0-0.002,0C0.386,0.622,0.392,0.681,0.386,0.732
	c-0.006-0.048,0.001-0.1-0.003-0.15c0-0.004-0.001-0.017-0.007-0.01C0.367,0.61,0.37,0.652,0.372,0.691
	c0.002,0.004,0,0.006-0.003,0.008c-0.01-0.011,0.013-0.147-0.017-0.123C0.352,0.576,0.35,0.575,0.348,0.574
	c-0.008,0.01,0,0.021-0.005,0.032C0.338,0.598,0.341,0.589,0.338,0.581C0.329,0.659,0.332,0.739,0.33,0.817
	c0,0.004-0.005,0.007-0.009,0.004C0.314,0.823,0.314,0.82,0.313,0.814C0.313,0.732,0.315,0.65,0.311,0.568
	C0.309,0.573,0.307,0.571,0.304,0.569c-0.001,0-0.001,0.001-0.002,0.001c0,0.011,0,0.023,0,0.034c-0.001,0-0.002,0-0.003,0
	c-0.003-0.011,0-0.023-0.002-0.034c-0.001,0-0.002,0-0.002-0.001C0.291,0.696,0.298,0.825,0.294,0.953
	c-0.001,0-0.001,0.001-0.002,0.001c-0.007-0.127,0-0.255-0.003-0.383c-0.001,0-0.002,0-0.002,0C0.285,0.674,0.288,0.779,0.282,0.882
	C0.277,0.878,0.276,0.874,0.276,0.869c0.001-0.101,0.001-0.2,0.001-0.301c-0.001,0-0.001,0-0.001,0
	c-0.003,0.023,0,0.046-0.002,0.069c-0.001,0-0.001,0-0.001,0C0.262,0.618,0.279,0.575,0.264,0.564
	C0.255,0.627,0.262,0.699,0.258,0.764C0.259,0.763,0.259,0.762,0.259,0.76c0.001,0,0.001,0,0.001,0c0,0.003,0,0.006,0,0.009
	C0.254,0.77,0.253,0.769,0.254,0.763c0.001-0.068,0.003-0.138-0.002-0.207c-0.001,0-0.001,0-0.002,0
	c-0.003,0.048,0,0.096-0.002,0.144c-0.02-0.009,0.003-0.14-0.011-0.158C0.215,0.577,0.232,0.622,0.225,0.66
	C0.209,0.643,0.223,0.599,0.218,0.575c-0.02,0.04-0.009,0.09-0.014,0.133C0.2,0.722,0.22,0.747,0.201,0.754
	c-0.01,0-0.008-0.012-0.007-0.019c0-0.02,0.013-0.144-0.013-0.137c-0.011,0.031-0.002,0.068-0.01,0.1c-0.001,0-0.001,0-0.002,0
	C0.165,0.666,0.167,0.633,0.161,0.6C0.155,0.637,0.155,0.675,0.156,0.712C0.155,0.724,0.168,0.743,0.15,0.746
	C0.147,0.779,0.155,0.816,0.147,0.848C0.143,0.845,0.142,0.84,0.142,0.835c0.001-0.075,0.001-0.151,0.002-0.226
	c-0.001,0-0.001,0-0.002,0c-0.01,0.053-0.009,0.11-0.004,0.163C0.137,0.789,0.121,0.784,0.123,0.768
	c-0.005-0.001-0.007-0.005-0.007-0.01c0-0.05,0.001-0.1,0-0.149C0.094,0.645,0.111,0.711,0.103,0.751
	c-0.004,0.003-0.01-0.003-0.009-0.008C0.099,0.7,0.098,0.657,0.091,0.616C0.079,0.711,0.081,0.812,0.082,0.908
	C0.08,0.927,0.107,0.981,0.069,0.97C0.054,0.958,0.071,0.935,0.071,0.919C0.07,0.894,0.073,0.869,0.073,0.844
	C0.07,0.785,0.082,0.638,0.05,0.597C0.043,0.695,0.051,0.796,0.042,0.892C0.037,0.888,0.036,0.884,0.036,0.878
	c0.001-0.095,0.002-0.19,0.001-0.286c-0.001,0-0.001-0.001-0.002-0.001C0.033,0.597,0.03,0.604,0.024,0.6
	C0.006,0.595,0.018,0.648,0.013,0.66C0.001,0.673,0.011,0.611,0.005,0.605C0.002,0.701,0.012,0.814,0,0.905
	C0,0.766-0.002,0.139-0.002,0c0.141,0,0.81,0,1.004,0C1.002,0.046,1.004,0.579,1.004,0.625z M0.126,0.671c-0.001,0-0.001,0-0.001,0
	c0,0.027,0,0.053,0,0.079c0.001,0,0.001,0,0.001,0C0.126,0.723,0.126,0.697,0.126,0.671z M0.324,0.639
	C0.324,0.639,0.324,0.639,0.324,0.639C0.324,0.629,0.324,0.62,0.324,0.61H0.324C0.324,0.62,0.324,0.629,0.324,0.639z"/>
</svg>
