<?xml version="1.0" encoding="UTF-8"?><svg id="Layer_2" xmlns="http://www.w3.org/2000/svg" viewBox="0 0 579.32 245.18"><defs><style>.cls-1,.cls-2{fill:none;}.cls-2{stroke:#df8ce3;stroke-miterlimit:10;stroke-width:5.67px;}</style></defs><g id="Layer_1-2"><g id="navi-logo-g"><line id="divider" class="cls-2" x1="450.94" y1="245.18" x2="450.94" y2="0"/><g id="navi-logo"><path id="moon" class="cls-2" d="M213.04,214.9c-42.72,0-77.36-34.63-77.36-77.36,0-31.04,18.29-57.8,44.68-70.12-3.32-.39-6.69-.61-10.12-.61-47.73,0-86.42,38.69-86.42,86.42s38.69,86.42,86.42,86.42c24.95,0,47.41-10.58,63.18-27.49-6.5,1.77-13.33,2.74-20.39,2.74Z"/><line class="cls-2" x1="228.81" y1="5.53" x2="228.81" y2="63.21"/><line class="cls-2" x1="199.97" y1="34.37" x2="257.64" y2="34.37"/><line class="cls-2" x1="273.78" y1="64.72" x2="273.78" y2="153.23"/><line class="cls-2" x1="231.45" y1="108.97" x2="316.11" y2="108.97"/></g><rect class="cls-1" width="579.32" height="245.18"/></g></g></svg>