<?xml version="1.0" encoding="UTF-8"?><svg id="Layer_2" xmlns="http://www.w3.org/2000/svg" viewBox="0 0 579.32 245.18"><defs><style>.cls-1,.cls-2{fill:none;}.cls-2{stroke:#df8ce3;stroke-miterlimit:10;stroke-width:5.67px;}</style></defs><g id="Layer_1-2"><g id="git-logo-g"><line id="divider" class="cls-2" x1="450.94" y1="245.18" x2="450.94" y2="0"/><path id="git-logo" class="cls-2" d="M199.97,3.02c-67.69,0-122.59,54.89-122.59,122.59,0,54.16,35.12,100.12,83.84,116.33,6.12,1.13,8.1-2.67,8.1-5.89v-22.82c-34.1,7.42-41.2-14.47-41.2-14.47-5.58-14.17-13.62-17.94-13.62-17.94-11.13-7.61,.85-7.45,.85-7.45,12.31,.86,18.79,12.64,18.79,12.64,10.93,18.74,28.68,13.32,35.67,10.19,1.09-7.92,4.27-13.33,7.78-16.39-27.23-3.12-55.85-13.63-55.85-60.59,0-13.39,4.79-24.32,12.63-32.91-1.27-3.1-5.47-15.57,1.2-32.45,0,0,10.3-3.29,33.72,12.57,9.78-2.72,20.26-4.08,30.68-4.13,10.42,.05,20.91,1.41,30.71,4.13,23.4-15.86,33.68-12.57,33.68-12.57,6.67,16.89,2.47,29.36,1.21,32.45,7.87,8.58,12.62,19.52,12.62,32.91,0,47.08-28.68,57.45-55.97,60.49,4.39,3.8,8.41,11.26,8.41,22.7v33.64c0,3.26,1.96,7.09,8.18,5.88,48.68-16.23,83.76-62.17,83.76-116.32,0-67.7-54.89-122.59-122.59-122.59Z"/><rect class="cls-1" width="579.32" height="245.18"/></g></g></svg>